<svg width="50" height="50" viewBox="0 0 50 50" fill="none" xmlns="http://www.w3.org/2000/svg">
<ellipse cx="31.1229" cy="13.2657" rx="6.63265" ry="9.18367" fill="#A9D3D9"/>
<ellipse cx="31.1229" cy="24.4903" rx="6.63265" ry="9.18367" fill="#A9D3D9"/>
<ellipse cx="33.1637" cy="35.7138" rx="8.67347" ry="10.2041" fill="#A9D3D9"/>
<ellipse cx="36.2243" cy="28.5713" rx="8.67347" ry="10.2041" fill="#A9D3D9"/>
<ellipse cx="35.2047" cy="21.4287" rx="8.67347" ry="10.2041" fill="#A9D3D9"/>
<path d="M25 37.4993V10.416" stroke="black" stroke-width="2" stroke-linecap="round" stroke-linejoin="round"/>
<path d="M31.25 27.0833C29.4475 26.5564 27.8643 25.4596 26.7375 23.9573C25.6107 22.4549 25.0011 20.6279 25 18.75C24.9989 20.6279 24.3893 22.4549 23.2625 23.9573C22.1357 25.4596 20.5525 26.5564 18.75 27.0833" stroke="black" stroke-width="2" stroke-linecap="round" stroke-linejoin="round"/>
<path d="M36.6625 13.5413C37.1419 12.7111 37.4239 11.7817 37.4866 10.825C37.5493 9.86839 37.3912 8.91013 37.0243 8.0244C36.6575 7.13867 36.0918 6.3492 35.371 5.71708C34.6502 5.08496 33.7937 4.62712 32.8676 4.37899C31.9416 4.13085 30.9709 4.09908 30.0306 4.28612C29.0904 4.47316 28.2057 4.874 27.4451 5.45763C26.6846 6.04127 26.0685 6.79205 25.6445 7.65189C25.2205 8.51174 25 9.45759 25 10.4163C25 9.45759 24.7795 8.51174 24.3555 7.65189C23.9315 6.79205 23.3154 6.04127 22.5549 5.45763C21.7943 4.874 20.9096 4.47316 19.9694 4.28612C19.0291 4.09908 18.0584 4.13085 17.1324 4.37899C16.2063 4.62712 15.3498 5.08496 14.629 5.71708C13.9082 6.3492 13.3425 7.13867 12.9757 8.0244C12.6088 8.91013 12.4507 9.86839 12.5134 10.825C12.5761 11.7817 12.8581 12.7111 13.3375 13.5413" stroke="black" stroke-width="2" stroke-linecap="round" stroke-linejoin="round"/>
<path d="M37.4941 10.6777C38.7187 10.9926 39.8556 11.582 40.8187 12.4013C41.7817 13.2206 42.5457 14.2483 43.0528 15.4066C43.5599 16.5649 43.7967 17.8233 43.7454 19.0867C43.6941 20.3501 43.356 21.5852 42.7566 22.6986" stroke="black" stroke-width="2" stroke-linecap="round" stroke-linejoin="round"/>
<path d="M37.5 37.4992C39.3344 37.4991 41.1175 36.8938 42.5728 35.7771C44.0281 34.6603 45.0742 33.0946 45.549 31.3227C46.0238 29.5509 45.9007 27.6718 45.1987 25.9771C44.4968 24.2823 43.2552 22.8665 41.6667 21.9492" stroke="black" stroke-width="2" stroke-linecap="round" stroke-linejoin="round"/>
<path d="M41.5986 36.4238C41.7446 37.5535 41.6574 38.7011 41.3426 39.7958C41.0277 40.8904 40.4917 41.9089 39.7678 42.7883C39.0438 43.6677 38.1473 44.3894 37.1335 44.9087C36.1198 45.4281 35.0103 45.7341 33.8736 45.8079C32.7369 45.8816 31.5972 45.7216 30.5248 45.3376C29.4525 44.9536 28.4702 44.3539 27.6386 43.5754C26.8071 42.7969 26.144 41.8563 25.6903 40.8115C25.2366 39.7667 25.0019 38.64 25.0006 37.5009C24.9994 38.64 24.7647 39.7667 24.311 40.8115C23.8573 41.8563 23.1942 42.7969 22.3626 43.5754C21.5311 44.3539 20.5488 44.9536 19.4765 45.3376C18.4041 45.7216 17.2643 45.8816 16.1277 45.8079C14.991 45.7341 13.8815 45.4281 12.8678 44.9087C11.854 44.3894 10.9575 43.6677 10.2335 42.7883C9.5096 41.9089 8.97364 40.8904 8.65874 39.7958C8.34385 38.7011 8.25672 37.5535 8.40273 36.4238" stroke="black" stroke-width="2" stroke-linecap="round" stroke-linejoin="round"/>
<path d="M12.5009 37.4992C10.6666 37.4991 8.88345 36.8938 7.42816 35.7771C5.97287 34.6603 4.92671 33.0946 4.45193 31.3227C3.97715 29.5509 4.10028 27.6718 4.80222 25.9771C5.50417 24.2823 6.74569 22.8665 8.33427 21.9492" stroke="black" stroke-width="2" stroke-linecap="round" stroke-linejoin="round"/>
<path d="M12.5062 10.6777C11.2816 10.9926 10.1447 11.582 9.18167 12.4013C8.2186 13.2206 7.4546 14.2483 6.94753 15.4066C6.44045 16.5649 6.2036 17.8233 6.25491 19.0867C6.30622 20.3501 6.64435 21.5852 7.24368 22.6986" stroke="black" stroke-width="2" stroke-linecap="round" stroke-linejoin="round"/>
</svg>
