<svg width="50" height="50" viewBox="0 0 50 50" fill="none" xmlns="http://www.w3.org/2000/svg">
<path d="M20.8327 45.8333V14.5833C20.8327 14.0308 20.6132 13.5009 20.2225 13.1102C19.8318 12.7195 19.3019 12.5 18.7493 12.5H8.33268C7.22761 12.5 6.1678 12.939 5.3864 13.7204C4.605 14.5018 4.16602 15.5616 4.16602 16.6667V41.6666C4.16602 42.7717 4.605 43.8315 5.3864 44.6129C6.1678 45.3943 7.22761 45.8333 8.33268 45.8333H33.3327C34.4377 45.8333 35.4975 45.3943 36.2789 44.6129C37.0603 43.8315 37.4993 42.7717 37.4993 41.6666V31.25C37.4993 30.6975 37.2798 30.1675 36.8891 29.7768C36.4984 29.3861 35.9685 29.1667 35.416 29.1667H4.16602" fill="white"/>
<path d="M20.8327 45.8333V14.5833C20.8327 14.0308 20.6132 13.5009 20.2225 13.1102C19.8318 12.7195 19.3019 12.5 18.7493 12.5H8.33268C7.22761 12.5 6.1678 12.939 5.3864 13.7204C4.605 14.5018 4.16602 15.5616 4.16602 16.6667V41.6666C4.16602 42.7717 4.605 43.8315 5.3864 44.6129C6.1678 45.3943 7.22761 45.8333 8.33268 45.8333H33.3327C34.4377 45.8333 35.4975 45.3943 36.2789 44.6129C37.0603 43.8315 37.4993 42.7717 37.4993 41.6666V31.25C37.4993 30.6975 37.2798 30.1675 36.8891 29.7768C36.4984 29.3861 35.9685 29.1667 35.416 29.1667H4.16602" stroke="black" stroke-width="2" stroke-linecap="round" stroke-linejoin="round"/>
<path d="M43.7493 4.16602H31.2493C30.0988 4.16602 29.166 5.09875 29.166 6.24935V18.7493C29.166 19.8999 30.0988 20.8327 31.2493 20.8327H43.7493C44.8999 20.8327 45.8327 19.8999 45.8327 18.7493V6.24935C45.8327 5.09875 44.8999 4.16602 43.7493 4.16602Z" fill="#A9D3D9" stroke="black" stroke-width="2" stroke-linecap="round" stroke-linejoin="round"/>
</svg>
