<svg width="50" height="50" viewBox="0 0 50 50" fill="none" xmlns="http://www.w3.org/2000/svg">
<path d="M25 5L31 8.5L41 11.5V32.5L35 41L25.5 45L25 16V5Z" fill="#A9D3D9"/>
<path d="M41.6673 27.0836C41.6673 37.5003 34.3757 42.7086 25.709 45.7295C25.2552 45.8832 24.7622 45.8759 24.3132 45.7086C15.6257 42.7086 8.33398 37.5003 8.33398 27.0836V12.5003C8.33398 11.9478 8.55348 11.4178 8.94418 11.0271C9.33488 10.6364 9.86478 10.417 10.4173 10.417C14.584 10.417 19.7923 7.91695 23.4173 4.75029C23.8587 4.3732 24.4201 4.16602 25.0007 4.16602C25.5812 4.16602 26.1426 4.3732 26.584 4.75029C30.2298 7.93779 35.4173 10.417 39.584 10.417C40.1365 10.417 40.6664 10.6364 41.0571 11.0271C41.4478 11.4178 41.6673 11.9478 41.6673 12.5003V27.0836Z" stroke="black" stroke-width="2" stroke-linecap="round" stroke-linejoin="round"/>
<path d="M25 45.8327V4.16602" stroke="black" stroke-width="2" stroke-linecap="round" stroke-linejoin="round"/>
</svg>
